<?xml version="1.0" encoding="UTF-8"?>
<svg id="Layer_1" data-name="Layer 1" xmlns="http://www.w3.org/2000/svg" viewBox="0 0 725.85 618.52">
  <defs>
    <style>
      .cls-1 {
        fill: #313131;
      }

      .cls-2 {
        fill: #b42527;
      }

      .cls-3 {
        fill: #eb1f2f;
      }

      .cls-4 {
        fill: #d42127;
      }

      .cls-5 {
        fill: #eb2643;
      }

      .cls-6 {
        fill: #fffffe;
      }
    </style>
  </defs>
  <path class="cls-1" d="M520.17,76.56c13.2,9.85,24.48,23.49,36.97,33.81,2.09,1.73,8.03,6.59,10.22,7l-164.54,193.26c-1.31,1.05-1.69,3.44-2.54,4.43-3.82,4.47-8.17,10.27-11.48,14.03-.55.63-6.87,4.07-7.65,5.1-8.06-5.56-15.65-12.01-22.98-18.48-5.18-4.57-34.21-31.15-35.43-34.77-.53-1.56-.41-3.75-.26-5.43.04-.45-.11-.95,0-1.28.06-.19.91-.77,1.28-1.28.11-.15,2.12-2.15,2.55-2.55.3-.28,1.64-.32,2.55-1.28.8-.84,1.71-1.69,2.55-2.55,1.32-1.35,1.98-3.27,2.55-3.83l2.55-2.55c.61-.61,2-2.02,2.55-2.55l1.28-1.28c.85-.85,1.7-1.7,2.55-2.55,7.74-7.77,16.22-16.19,24.23-24.23,50.9-51.1,102-102.1,153.05-153.05Z"/>
  <path class="cls-2" d="M367.12,229.61c-8.01,8.04-16.5,16.47-24.23,24.23.52-4.41-1.37-1.81-3.56-1.65-8.74.63-14.33,2.74-22.84-.64-5.51-2.19-14.32-9.28-16.96-14.28-12.83-24.26,1.82-49.98,16.58-69.51,3.66-4.84,22.61-22.21,21.54-26.51-1.67-6.7-14.21-4.49-19.27-3.11-53.37,14.56-67.9,57.9-83.89,104.23-4.28,12.4-9.1,28.79-16.58,39.54-4.75,6.82-17.31,18.11-24.23,22.96-10.69,7.48-21.66,10.86-32.75,16.35-9.39,4.65-17.71,9.51-27.19,14.26-12.43,6.22-21.07,9.99-32.49,19.17-55.6,44.68-38.32,101.91,1.91,149.8,35.3,42.03,111.86,110.06,171.14,94.68,22.59-5.86,56.17-36.6,66.27-57.44,4.59-9.47,15.13-34.32,15.09-44.22,0-.83.11-1.77,0-2.55,1.75-.63,1.11-2.47,1.28-3.83.15-1.24-.15-2.59,0-3.83.02-.14.98-.34,1.28-2.55,1.59-11.76,2.81-23.42,7.65-34.44,2.66-6.05,7.47-9.5,10.2-15.31,4.14.47,4.06-.77,5.1-3.83,9.54-3.53,20.09-9.81,30.61-14.03,26.3-10.56,43.18-12.81,61.78-37.07,9.25-12.06,15.38-29.57,11.93-44.93-.48-2.15-4.36-7.69-6.61-7.22-4.82,1-12.84,20.97-16.06,24.83-11.04,13.24-29.51,14.54-44.96,9.22-3.43-1.18-1.11-2.02-6.08-2.23-.83-.03-1.83.14-2.55,0-.38-.46-.9-.82-1.28-1.28-3.87-4.67-11.42-10.06-14.11-15.86-2.1-4.51-.82-10.61-5.02-13.48,3.3-3.76,7.66-9.56,11.48-14.03-1.07,14.17.41,24.26,12.34,32.94,8.86,6.45,15.41,8.48,26.26,6.3,20.38-4.09,24.68-34.62,37.37-36.62,24.51-3.87,22,34.02,16.85,48.75-7.77,22.23-30.18,41.35-51.15,50.89-28.99,13.18-60.17,11.87-70.38,48.23-11.11,39.57-5.96,63.33-33.82,98.82-61.74,78.63-134.46,46.32-198.26-8.29-48.53-41.54-110.28-110.61-74.03-178.55,32.71-61.3,125.92-56.69,151.76-117.36,17.95-42.15,18.6-81.41,59.47-112.71,12.83-9.83,69.04-38.71,72.54-8.93,1.51,12.8-18.34,27.59-26.01,37.61-12.5,16.34-30.22,47.51-7.04,62.94,16.38,10.9,35.21-4.87,50.93-9.48Z"/>
  <path class="cls-2" d="M520.17,76.56c-4.01-18.16,2.91-36.14,20.11-44.3,13.23-6.28,73.1-22.78,87.8-24.44,13.31-1.5,24.93-1.25,30.95,12.14,10.53,23.44-11.41,43.84-32.98,29.81-8.52,15.96-14.59,51.75-29.5,61.71-7.41,4.95-20.52,7.51-29.19,5.89-2.19-.41-8.12-5.27-10.22-7-12.5-10.33-23.77-23.97-36.97-33.81ZM568.64,35.75c-1.92.57-5.39-.11-8.67.89-7.41,2.27-16.25,4.5-21.94,9.31-6.66,5.64-9.32,14.7-7.62,23.57.55,2.89,11.03,12.57,13.98,15.35s23.55,21.56,25.15,22.05c5.74,1.75,19.43-.8,23.41-5.46.92-1.07.79-2.57,1.2-3.21,4.68-7.32,8.14-14.94,11.48-22.96,3.63-8.72,7.15-18.92,10.82-28.08,1.07-2.66,3.45-12.66,4.43-13.44,4.21-3.34,12.9,14.69,23.94,9.96,8.96-3.84,8.69-18.47,1.72-24.02-3.68-2.94-12.2-2.1-16.99-1.48-19.69,2.54-42.04,11.9-60.91,17.53Z"/>
  <path class="cls-6" d="M311,271.7c.42.01.85-.03,1.28,0l3.83,1.28c.43.08.9-.1,1.28,0l2.55,1.28c.38.12.87-.09,1.28,0l1.28,1.28c-.15,1.68-.27,3.87.26,5.43,1.22,3.62,30.25,30.2,35.43,34.77,7.33,6.47,14.92,12.92,22.98,18.48-2.06,2.7-.57,6.24.37,9.21,3.95,12.54,17.81,26.11,30.24,30.33,4.29,1.46,11.35,2.76,15.89,2.57,8.68-.37,32.02-13.78,23.42,2.95-9.02,17.56-26.16,21.39-43.13,26.37-4.65,1.36-9.41,2.45-14.03,3.83-29.52,8.8-43.31,23.52-47.19,54.84-.05.42.03.85,0,1.28-1.75.6-1.11,2.48-1.28,3.83-1.13,9.23-2.15,18.94-3.83,28.06-3.75,20.39-11.61,55.65-37.57,57.44-17.66,1.22-21.85-9.91-26.2-24.28-.15-11.84-1.37-24.09-3.83-35.71-3.08-14.61-9.25-29.15-18.07-41.23-20.45-28.02-85.16-54.32-56.46-97.71,14.11-21.34,34.33-21.05,55.16-27.74,16.78-5.39,14.66-19.1,19.66-32.63,6.47-17.53,18.28-24.42,36.7-23.88ZM309.39,455.67c-17.13,3.12-18.69,30.63,0,33.84,27.04,4.65,27.94-38.94,0-33.84ZM305.59,507.89c-20.13,3.52-9.5,36.34,9.14,25.8,14.26-8.06,5.05-28.28-9.14-25.8Z"/>
  <path class="cls-3" d="M299.53,237.26c2.64,5,11.45,12.1,16.96,14.28,8.51,3.38,14.1,1.27,22.84.64,2.19-.16,4.07-2.76,3.56,1.65-.85.85-1.7,1.7-2.55,2.55-.42.42-.85.86-1.28,1.28-.55.53-1.94,1.94-2.55,2.55-.85.84-1.71,1.72-2.55,2.55-.57.56-1.24,2.48-2.55,3.83-2.71-.31-2.86-.16-2.55,2.55-.91.96-2.25,1-2.55,1.28l-2.55,2.55c-.37.51-1.21,1.09-1.28,1.28h-1.28c-.4-.09-.89.12-1.28,0-.14-.04-.89-.81-2.55-1.28-.37-.1-.85.08-1.28,0-.2-.04-1.28-1.08-3.83-1.28-.42-.03-.85.01-1.28,0-8.61-2.4-18.37-2.18-27.06-.91-1.18.17-2.55,1.9-4.24,2.13-3.99.55-18.71,1.77-21.38.13s-2.29-7.23-10.24-5.23c-1.42.36-1.51,4.15-3.41,5.78-2.35,2.02-7.21,1.53-8.35,3.13-1.57,2.21.08,9.65-.55,10.29-.47.47-12.28.34-13.26.08-1.43-.38-.43-6-4.6-5.19,7.48-10.75,12.3-27.13,16.58-39.54,5.68,2.14,8.32-2.71,11.1-3.57,13.45-4.12,32.53-5.66,46.99-4.15,2.82.29,4.38,2.03,6.96,2.61Z"/>
  <path class="cls-3" d="M388.8,329.09c4.2,2.86,2.92,8.97,5.02,13.48,2.7,5.8,10.24,11.18,14.11,15.86.16.68.57,1.14,1.28,1.28s1.72-.03,2.55,0c6.79,6.25,1.88,7.25,0,14.03-12.43-4.22-26.3-17.79-30.24-30.33-.93-2.97-2.42-6.51-.37-9.21.78-1.03,7.1-4.47,7.65-5.1Z"/>
  <path class="cls-2" d="M331.41,266.6c-.84.86-1.75,1.71-2.55,2.55-.31-2.71-.16-2.86,2.55-2.55Z"/>
  <path class="cls-2" d="M323.76,272.97l2.55-2.55c-.43.41-2.45,2.4-2.55,2.55Z"/>
  <path class="cls-2" d="M333.96,262.77c.84-.83,1.7-1.71,2.55-2.55l-2.55,2.55Z"/>
  <path class="cls-2" d="M339.06,257.67c.43-.41.85-.85,1.28-1.28l-1.28,1.28Z"/>
  <path class="cls-2" d="M322.48,275.53l-1.28-1.28h1.28c-.11.32.04.83,0,1.28Z"/>
  <path class="cls-4" d="M133.72,335.47c.99,6,.58,13.53-.06,19.7-.25,2.41-2.16,4.53-2.53,7.68-.73,6.34.96,14.13-.04,20.37-.58,3.61-4.14,6.85-3.79,10.23.26,2.49,3.44,4.24,4.54,7.03,1.96,5.02,1.76,12.9,3.49,18.19,1.33,4.04,5.13,6.58,4.78,11.18,4.09.96,5.15-3.59,8.92-3.83-.28.35-.34,2.04-1.23,3.18-2.54,3.24-7.74,5.12-3.94,10.28l89.91,84.81c5.42,4.33,13.32-4.83,17.29-8.99,2.72,6.38,7.96,2.02,13.4,2.47,1.17.1,10.42,2.89,10.87,3.23,1.17.87,1.67,6.79,2.52,9.6,4.35,14.37,8.54,25.5,26.2,24.28,25.96-1.8,33.83-37.05,37.57-57.44,4.38,4.88,8.52-.79,14.03,0,.04,9.9-10.5,34.74-15.09,44.22-10.1,20.84-43.68,51.58-66.27,57.44-59.28,15.39-135.84-52.65-171.14-94.68-40.23-47.89-57.51-105.11-1.91-149.8,11.42-9.17,20.06-12.94,32.49-19.17Z"/>
  <path class="cls-5" d="M217.9,281.9c4.17-.81,3.17,4.81,4.6,5.19.98.26,12.79.39,13.26-.08.64-.64-1.02-8.08.55-10.29,1.14-1.6,5.99-1.11,8.35-3.13,1.9-1.63,2-5.43,3.41-5.78,7.95-2,7.59,3.61,10.24,5.23s17.4.41,21.38-.13c1.7-.23,3.07-1.96,4.24-2.13,8.69-1.27,18.45-1.49,27.06.91-18.42-.54-30.23,6.36-36.7,23.88-5,13.53-2.89,27.24-19.66,32.63-20.83,6.7-41.05,6.41-55.16,27.74-28.7,43.38,36.01,69.69,56.46,97.71,8.82,12.08,14.99,26.63,18.07,41.23-5.03.61-1.33-5.84-2.75-7.47-2.43-2.79-12.18-2.21-15.39-3.08-4.05-1.09-10.68-5.47-14.37-6.05-3.31-.52-1.48,3.58-.64,5.12l-75.25-70.15c3.29-.22,5.83.58,8.93,1.28v-50.38c0-9.36,8.37-20.44,10.14-29.39.39-1.95-.28-7.9.06-8.24.41-.4,6.1.49,8.12-.17,3.86-1.25,2.12-17.51.81-21.5,6.92-4.85,19.49-16.14,24.23-22.96Z"/>
  <path class="cls-4" d="M299.53,237.26c-2.57-.58-4.14-2.32-6.96-2.61-14.46-1.51-33.54.03-46.99,4.15-2.78.85-5.43,5.7-11.1,3.57,15.99-46.33,30.52-89.67,83.89-104.23,5.06-1.38,17.6-3.59,19.27,3.11,1.07,4.3-17.88,21.67-21.54,26.51-14.76,19.53-29.41,45.25-16.58,69.51Z"/>
  <path class="cls-3" d="M193.67,304.86c1.31,3.99,3.04,20.25-.81,21.5-2.03.66-7.71-.23-8.12.17-.34.33.33,6.28-.06,8.24-1.77,8.96-10.14,20.03-10.14,29.39v50.38c-3.1-.69-5.64-1.49-8.93-1.28-7.6.51-10.25,7.29-14.5,12.33-.5.59-1.97.29-2.08.43-3.76.24-4.83,4.79-8.92,3.83.35-4.6-3.45-7.14-4.78-11.18-1.74-5.29-1.53-13.17-3.49-18.19-1.09-2.79-4.28-4.53-4.54-7.03-.35-3.38,3.21-6.63,3.79-10.23,1-6.24-.7-14.03.04-20.37.36-3.15,2.28-5.27,2.53-7.68.64-6.17,1.05-13.7.06-19.7,9.48-4.75,17.81-9.61,27.19-14.26,11.09-5.49,22.07-8.87,32.75-16.35Z"/>
  <path class="cls-4" d="M411.76,417.1c.69-6.92,4.48-9.82-3.83-11.48,16.98-4.98,34.11-8.81,43.13-26.37,8.6-16.73-14.74-3.32-23.42-2.95-4.53.19-11.59-1.11-15.89-2.57,1.88-6.78,6.79-7.78,0-14.03,4.97.21,2.65,1.04,6.08,2.23,15.45,5.32,33.93,4.02,44.96-9.22,3.22-3.86,11.24-23.83,16.06-24.83,2.25-.47,6.12,5.08,6.61,7.22,3.45,15.36-2.68,32.87-11.93,44.93-18.6,24.25-35.47,26.51-61.78,37.07Z"/>
  <path class="cls-5" d="M393.91,409.44c3.41,3.57-4.12,2.93-6.71,4.13-10.46,4.84-2.98,8.59-6.05,17.55-1.3.48-4.1.5-4.91,1.52-.58.72,0,1.91-.19,2.31-2.73,5.81-7.54,9.25-10.2,15.31-2.57,1.02-2.51-2.62-3.3-2.63-6.56-.14-3.12,7.97-7.26,11.18-3.21,2.49-7.34-.24-8.57,5.48,3.88-31.32,17.67-46.04,47.19-54.84Z"/>
  <path class="cls-3" d="M346.72,464.29c1.23-5.72,5.36-2.99,8.57-5.48,4.14-3.21.7-11.32,7.26-11.18.79.02.73,3.65,3.3,2.63-4.84,11.02-6.06,22.68-7.65,34.44-2.91-.46-3.59.52-1.28,2.55-.15,1.23.15,2.59,0,3.83-5.12-.58-1.47,2.45-1.28,3.83.11.79,0,1.72,0,2.55-5.51-.79-9.65,4.88-14.03,0,1.68-9.12,2.7-18.83,3.83-28.06,1.7-.66,1.18-2.43,1.28-3.83.03-.42-.05-.86,0-1.28Z"/>
  <path class="cls-3" d="M407.94,405.62c8.31,1.66,4.52,4.55,3.83,11.48-10.52,4.22-21.07,10.5-30.61,14.03-1.05,3.06-.97,4.29-5.1,3.83.19-.4-.38-1.59.19-2.31.81-1.01,3.61-1.04,4.91-1.52,3.06-8.96-4.42-12.71,6.05-17.55,2.59-1.2,10.12-.56,6.71-4.13,4.62-1.38,9.38-2.46,14.03-3.83Z"/>
  <path class="cls-4" d="M356.92,491.07c-.16,1.36.47,3.19-1.28,3.83-.19-1.37-3.84-4.41,1.28-3.83Z"/>
  <path class="cls-4" d="M358.19,484.69c-.3,2.21-1.26,2.41-1.28,2.55-2.32-2.03-1.63-3.01,1.28-2.55Z"/>
  <path class="cls-4" d="M409.21,359.7c-.7-.14-1.12-.59-1.28-1.28.38.46.9.81,1.28,1.28Z"/>
  <path class="cls-5" d="M605.63,75.28c-7.8,3.51-5.04-2.47-7.56-5.83-1.02-1.36-3.73-1.74-4.55-3.13-.96-1.63-.36-4.66-.69-5.01-.65-.69-9.58.53-10.16-.05-.54-.54.55-9.67.01-10.22s-9.68.55-10.22.01c-.35-.35.42-7-.25-9.31-.58-1.97-3.8-3.24-3.57-6,18.87-5.63,41.22-14.99,60.91-17.53,4.79-.62,13.31-1.45,16.99,1.48,6.96,5.55,7.23,20.19-1.72,24.02-11.05,4.73-19.73-13.3-23.94-9.96-.99.78-3.36,10.78-4.43,13.44-3.67,9.16-7.18,19.36-10.82,28.08Z"/>
  <path class="cls-4" d="M538.03,45.95c.69,5.12,4.16,3.12,7.07,5.02s5.86,7.02,8.83,9.05c2.16,1.47,5.63,1.13,7.19,3.01,2.15,2.57.58,7.75,1.2,8.38.21.21,3.58-.03,5.75,1.25,2.31,1.36,3.34,4.86,4.79,6.06,1.76,1.46,4.64,1.71,6.43,3.15,6.03,4.84,12.55,8.73,14.86,16.38-.41.64-.28,2.14-1.2,3.21-3.98,4.66-17.67,7.21-23.41,5.46-1.6-.49-22.16-19.23-25.15-22.05s-13.43-12.46-13.98-15.35c-1.7-8.87.96-17.93,7.62-23.57Z"/>
  <path class="cls-3" d="M568.64,35.75c-.24,2.76,2.99,4.03,3.57,6,.68,2.32-.1,8.96.25,9.31.54.54,9.68-.55,10.22-.01s-.55,9.67-.01,10.22c.58.58,9.51-.65,10.16.05.33.35-.27,3.38.69,5.01.82,1.4,3.53,1.78,4.55,3.13,2.53,3.35-.24,9.34,7.56,5.83-3.34,8.02-6.8,15.64-11.48,22.96-2.32-7.65-8.84-11.55-14.86-16.38-1.79-1.44-4.67-1.68-6.43-3.15-1.45-1.2-2.48-4.7-4.79-6.06-2.17-1.28-5.54-1.04-5.75-1.25-.62-.62.95-5.81-1.2-8.38-1.57-1.87-5.04-1.53-7.19-3.01-2.97-2.03-5.95-7.17-8.83-9.05s-6.38.1-7.07-5.02c5.68-4.81,14.52-7.04,21.94-9.31,3.28-1,6.75-.32,8.67-.89Z"/>
  <path class="cls-1" d="M309.39,455.67c27.94-5.1,27.04,38.49,0,33.84-18.69-3.21-17.13-30.72,0-33.84Z"/>
  <path class="cls-3" d="M240.86,483.42c-.83-1.54-2.67-5.64.64-5.12,3.69.58,10.32,4.96,14.37,6.05,3.22.86,12.96.29,15.39,3.08,1.42,1.63-2.28,8.08,2.75,7.47,2.45,11.62,3.68,23.87,3.83,35.71-.85-2.81-1.35-8.73-2.52-9.6-.45-.34-9.7-3.13-10.87-3.23-5.44-.45-10.68,3.91-13.4-2.47,3.44-3.61,6.43-7.55,8.84-11.94-.36-2.09-16.67-15.58-19.04-19.95Z"/>
  <path class="cls-1" d="M305.59,507.89c14.19-2.48,23.4,17.73,9.14,25.8-18.64,10.54-29.27-22.27-9.14-25.8Z"/>
  <path class="cls-5" d="M316.11,272.97l-3.83-1.28c2.55.2,3.63,1.24,3.83,1.28Z"/>
  <path class="cls-5" d="M345.44,469.39c.16-1.35-.47-3.23,1.28-3.83-.1,1.4.42,3.17-1.28,3.83Z"/>
  <path class="cls-5" d="M319.93,274.25l-2.55-1.28c1.66.47,2.41,1.23,2.55,1.28Z"/>
  <path class="cls-1" d="M165.61,413.27l75.25,70.15c2.37,4.37,18.68,17.85,19.04,19.95-2.4,4.39-5.4,8.33-8.84,11.94-3.97,4.16-11.87,13.32-17.29,8.99l-89.91-84.81c-3.8-5.16,1.4-7.04,3.94-10.28.89-1.14.95-2.83,1.23-3.18.11-.14,1.58.17,2.08-.43,4.25-5.04,6.9-11.82,14.5-12.33Z"/>
</svg>